<?xml version="1.0"?>
<svg xmlns="http://www.w3.org/2000/svg" xmlns:xlink="http://www.w3.org/1999/xlink" xmlns:svgjs="http://svgjs.com/svgjs" version="1.1" width="256" height="256" x="0" y="0" viewBox="0 0 24 24" style="enable-background:new 0 0 512 512" xml:space="preserve"><g><path d="m21 6h-6.586l-1.159-1.159 3.745-2.341-4-2.5h-2v4.586l-1.414 1.414h-6.586a3 3 0 0 0 -3 3v15h24v-15a3 3 0 0 0 -3-3zm0 2a1 1 0 0 1 1 1v1h-3.586l-2-2zm-18 0h4.586l-2 2h-3.586v-1a1 1 0 0 1 1-1zm10 14h-2v-3a1 1 0 0 1 2 0zm2 0v-3a3 3 0 0 0 -6 0v3h-7v-10h4.414l5.586-5.586 5.586 5.586h4.414v10zm-11-8h3v2h-3zm0 4h3v2h-3zm13-4h3v2h-3zm0 4h3v2h-3zm-3-6a2 2 0 1 1 -2-2 2 2 0 0 1 2 2z" fill="#813232" data-original="#000000"/></g></svg>
